<svg xmlns="http://www.w3.org/2000/svg" viewBox="0 0 600 800" width="100%" height="100%">
  <rect width="100%" height="100%" fill="#f4f1eb"/>
  <text x="50%" y="45%" font-family="Arial, sans-serif" font-size="28" font-weight="bold" fill="#a09a8e" text-anchor="middle" dominant-baseline="middle">صورة المنتج</text>
  <path d="M300 480c-16.5 0-30 13.5-30 30s13.5 30 30 30 30-13.5 30-30-13.5-30-30-30zm0 45c-8.25 0-15-6.75-15-15s6.75-15 15-15 15 6.75 15 15-6.75 15-15 15z" fill="#a09a8e"/>
  <path d="M345 510h-22.5v-7.5h15v-45h-75v45h15v7.5h-22.5v7.5h90v-7.5z" fill="#a09a8e"/>
</svg>